<svg width="409" height="167" viewBox="0 0 409 167" xmlns="http://www.w3.org/2000/svg">
  <path d="M336 64.9c-1.37-2.2-1.7-4.9-1-8.1v-.6c3.8-11.6 10.2-21.4 20.4-28.4 2.2-1.6 4.6-2.6 7.4-2.4 3.4.4 5.2 2 5.2 5.4.2 1.6-.2 3.2-.6 4.8-1.8 6.4-4.8 12-9.2 16.8l-9.6 10.2c1.6 2 4 2.6 6 3.4 2 .8 3.8 1.2 5.6 2 5.8 2.6 7.8 7 5.8 13-1.6 5-3.4 10-5 15-.6 1.4-1.4 3-.4 5l4.2-2.6c12.4-8.8 24.4-18.4 35.8-28.2 1.2-1.2 2.6-2.2 3.8-3.2 1.4-.8 2.6-1.4 4.6-.4-.4 1-.6 2-1.2 2.8-1.8 2-3.6 3.8-5.6 5.6l-21 21c-4.4 4.2-8.6 8.4-13.8 11.4-4 2.4-8.4 3-13 2.4-6.4-.8-9.6-5.4-8-11.6 1-3.2 2.4-6.2 3.6-9.2 1.2-3 2.6-5.8 3.8-8.6.4-1 .6-2.2.8-3.4.2-2.6-1-4-3.4-4.8-1.6-.4-3.2-.6-4.8-1.2-2-.6-4.2-1.2-6-2.2-.83-.45-1.57-.94-2.22-1.47-10.2 9.82-20.4 19.63-30.58 29.27-6 5.6-13 10.2-21.2 12.4-3.6 1-7.4 1.4-11.2.8-6.4-1.2-9.2-5-8.2-11.4.14-1.58.47-3.14.92-4.67-.63.6-1.27 1.17-1.92 1.74-4.2 3.98-8.8 7.34-13.6 10.5-2.8 1.88-5.8 3.14-9 4.2-1.6.83-3.6.83-5.2.83-6.6-.2-8.6-2.73-6.8-9.24 1.4-5.24 3.4-10.5 5.6-15.74 1.17-2.75 2.42-5.47 3.74-8.15l-7.94 6.53c-5 4-10.2 7.8-15.2 11.8-2.6 2-3.6 4.2-3.4 7.6.6 13.4-2 26.4-7.2 38.8-2 4.6-4.8 9-9 12.2-4.2 3.4-9 4.8-14.4 4.2-4.2-.6-6.4-2.4-6.6-6.6 0-3.8.4-7.8 1-11.4 2-9.8 6.8-18.4 12.2-26.4 3.2-4.4 6.8-8.6 10.2-12.8 1.8-2 2.6-3.8 2.4-6.6-.6-6.4-.8-12.6-1-18.8 0-.96 0-1.92.02-2.87-5.78 4.62-11.6 9.15-17.52 13.67-6.6 5.2-13.4 10.2-20 15.2-2.2 1.8-3.8 3.8-5 6.2-6.2 11.4-12.6 22.8-19 34.2-4.2 7-9 13.6-15.6 18.6-1.8 1.4-3.8 2.8-5.8 3.6-2.2 1-4.8 1.8-7.2 1.8-7.6.4-10.6-3.8-7.8-11 2.6-6.2 6.2-11.6 10.4-16.8 8.6-10.6 18.4-20 29-28.4 4.6-3.8 8.6-7.8 11-13.2 1.8-4.6 4.6-8.8 7-13.2.2-.6.6-1.4.4-2.4-1.2 1-2.4 2-3.8 3-4.6 4-9.2 8-14 11.6-5 3.8-10.6 6.2-17.2 5.6-.8 0-1.6 0-2.4-.2-6.8-1.4-9.4-5.8-7.6-12.4.2-1.2.6-2.6 1.2-3.8l.9-1.8c-5.86 5.65-11.73 11.25-17.6 16.8-6 5.6-13 10.2-21.2 12.4-3.6 1-7.4 1.4-11.2.8-6.4-1.2-9.2-5-8.2-11.4.4-4.4 2.2-8.6 4.2-12.4 4.4-8.2 10.2-15.2 17-21.2 2.2-2 4.8-3.6 7.4-5.2 1.4-.8 3-1.2 4.6-1.8 2.8-.8 5.6-.8 7.8 1.6 2 2.2 1 5-.2 7.4-4.6 10.2-13.6 17-25.6 19.4-2.2 5.8-5.2 11.6-3.2 18 2.6 1 4.6-.2 6.2-1 4.2-2.2 8.6-4.4 12.4-7.2 9.8-7.6 19.2-15.6 29-23.4 2.8-2.4 5.8-4.8 8.8-7.2.7-.56 1.16-.95 1.6-1.24 1.55-1.46 3.18-2.84 4.9-4.16 4-3 8.4-4.8 13.4-4.6 3.6 0 6 1.8 7.4 5 2 4.8-.2 12-4.4 15-.6.4-1.2.4-1.8.6-1-2.2-.2-4 0-6 .4-2.2.8-4.2.8-6.4 0-2-.4-4-2.6-5.2-2.4.6-4.6 2-6.4 3.6-6 5.6-10.8 12-13.6 19.8-.6 1.6-1.2 3.6-1.4 5.2-.4 2.2-.2 4.4 1.8 6 3 0 5.4-1.4 7.6-3 5.4-3.8 10.8-7.6 16-11.8 6.6-5.6 13.2-11.6 19.6-17.6 1.6-1.4 3.2-2.6 5.6-2.4 2.8.2 3.8 1.4 2.8 3.8-.8 2.2-1.8 4.2-2.8 6.4l-7 13.6c-.4 1.2-1 2.4-1.4 3.6 10-5.2 19-11.6 27.8-18.4 1.86-1.33 3.64-2.75 5.5-4.2 1-6.6 4.2-11.8 9.8-15.4 1.8-1.2 3.6-2.4 6.6-1.4-1 1-1.4 1.6-2 2-3.6 3.6-5.6 8-6 12.8-.8 8.2.8 16.2 2.2 24.6 1.6-1 2.6-1.4 3.6-2.2 10.32-7.07 20.45-14.32 30.58-21.58 3.65-6.35 7.6-12.54 11.62-18.63.8-1.06 1.4-2.32 2.2-3.58-5.2-1.26-10 2.1-15.4-.84 1.6-.84 2.6-1.68 4-2.1 3.2-.42 6.4-1.05 9.6-1.68 6-1.26 6-1.05 9.8-6.1 2.6-3.98 5.4-7.76 8.4-11.74.8-1.05 2.2-2.52 3.4-3.36 1.4-1.47 1.4-1.47 4.6-.63-.6 3.78-3.2 6.3-4.8 9.44-1.6 3.16-3.4 6.1-5.4 9.46 2 .84 3.8 1.26 6 1.9-2 2.3-4.2 2.5-6.2 2.93-1.8.2-3 .83-4 2.5-9.2 17.43-19.2 34.64-26.4 52.9-.4 1.7-1 3.36-1.6 5.04.4.2.6.42 1 .42 3.4-2.52 6.8-4.6 10-7.34 10.17-8.74 20.5-17.47 30.55-26.2 1.18-1.18 2.4-2.32 3.65-3.42 2.2-2 4.8-3.6 7.4-5.2 1.4-.8 3-1.2 4.6-1.8 2.8-.8 5.6-.8 7.8 1.6 2 2.2 1 5-.2 7.4-4.6 10.2-13.6 17-25.6 19.4-2.2 5.8-5.2 11.6-3.2 18 2.6 1 4.6-.2 6.2-1 4.2-2.2 8.6-4.4 12.4-7.2 9.8-7.6 19.2-15.6 29-23.4 2.8-2.4 5.8-4.8 8.8-7.2l.6-.5zM43.13 2.75c1.5 2.14.65 4.5.22 6.65-1.3 6.22-2.8 12.66-4.5 19.1l-11.6 43.55c0 .86-.2 1.5.22 2.36.86-1.7 1.93-3.2 2.8-4.92C36.9 56.6 44.2 43.94 52.35 31.93 57.5 24.2 62.85 16.7 69.5 10.26c2.57-2.36 5.36-4.5 8.15-6.66 2.57-1.93 5.36-3 8.58-3 5.8.2 8.8 2.8 9.87 8.37.65 4.93.22 9.65-.64 14.37-3.22 13.95-9.87 25.75-22.32 33.7-4.5 3-9.44 5.78-14.16 8.36-2.36 1.5-4.93 1.93-7.72 1.5-1.3 0-2.8-.43-2.58-1.93 0-1.07.86-2.15 1.72-3 1.5-1.3 3-.22 4.3.85 12.22-7.3 21.02-17.16 26.38-30.04 3.44-8.8 6-17.6 5.15-27.9-1.5.66-2.57.87-3.22 1.3-5.36 3.86-9.65 8.58-13.5 13.52C62 29.57 55.77 40.08 49.77 50.8c-11.8 21.25-22.1 43.14-31.97 65.45-1.28 3.22-3.2 6.22-4.7 9.44-1.3 2.57-3.45 3.64-6.02 3.85-5.37.43-7.73-2.14-6.87-7.3 1.73-8.36 3.66-16.73 5.6-24.88 3.64-16.95 9.86-33.04 15.65-49.14 4.5-12 9.23-23.8 13.95-35.6.86-2.37 1.93-4.73 3.22-6.88.86-1.72 1.93-3.43 4.5-3zM95.4 65.2c-6 2.6-15 13-17 19.8 8.8-2.8 17.8-13.2 17-19.8zm44.1 59.4c-.2 0-.6 0-.8.2-9.2 9-17.6 18.4-24.2 29.4-1 1.8-1.8 3.6-2.6 5.4-.2.8 0 1.8 0 3.2 1.2-.6 2-1 2.6-1.4 3.8-2.8 7-6.2 9.8-9.8 6-8.2 10.6-17.2 15.4-26 0-.4-.2-.6-.2-1zm61.3-8.4c-2 2-3.2 4.4-4.6 6.6-4.6 7.6-8 15.6-9.6 24.2-.4 2.2-1 4.6 0 6.8 3.6-2.2 4.6-3.4 6.6-8 4.2-8.8 6-18.4 8-28 .2-.4-.2-.8-.4-1.6zm102-55c-6 2.6-15 13-17 19.8 8.8-2.8 17.8-13.2 17-19.8zm58.4-31c-6 5.8-9.4 12.4-12.2 19.2-1 2.6-2.2 5-1.4 8 8.6-6.8 14.6-18.2 13.6-27.2z" fill="#000" fill-rule="evenodd"/>
</svg>
